<svg width="172" height="150" viewBox="0 0 172 150" fill="none" xmlns="http://www.w3.org/2000/svg">
<path d="M156.652 45.9813C156.653 45.9802 156.653 45.9783 156.652 45.9769L156.416 45.623C156.399 45.5974 156.38 45.5733 156.359 45.5511L147.567 36.3905C147.5 36.3203 147.437 36.2453 147.391 36.1593C146.977 35.3801 147.336 34.331 148.249 34.0565C149.602 33.6442 150.89 32.9182 151.995 31.8676C155.715 28.3189 155.882 22.4781 152.329 18.9338C148.942 15.2205 143.106 15.1262 139.39 18.6881C138.292 19.7409 137.509 20.9955 137.039 22.3312C136.721 23.2291 135.659 23.5401 134.9 23.0941C134.816 23.0446 134.744 22.9777 134.677 22.907L125.993 13.788C125.922 13.7138 125.844 13.6463 125.761 13.5863L125.5 13.3979C124.941 12.8605 124.042 12.8649 123.461 13.4264L113.583 22.9005C113.3 23.1717 112.918 23.3694 112.548 23.2408C112.147 23.1013 111.813 22.7885 111.68 22.3246C110.803 19.2935 108.283 16.6769 104.006 15.85C103.567 15.7645 103.102 15.7601 102.659 15.839C93.9037 17.3787 91.649 26.4831 96.3536 31.4224C97.3493 32.4686 98.5491 33.2077 99.8343 33.642C100.343 33.8141 100.644 34.2397 100.72 34.7157C100.774 35.0576 100.577 35.3741 100.328 35.6138L90.3374 45.1985C89.7342 45.7753 89.7035 46.7097 90.2628 47.2865L99.57 56.9897C99.619 57.0408 99.6716 57.0882 99.7274 57.1315L99.7453 57.1454C99.7885 57.179 99.8293 57.2156 99.8672 57.255C100.663 58.0885 102.054 57.6476 102.346 56.5027C103.205 53.1974 105.938 50.2474 110.498 49.3504C111.351 49.289 112.209 49.3438 113.045 49.5193C114.964 50.0435 116.488 50.9603 117.622 52.1161C118.723 53.3027 119.574 54.8665 120.006 56.8098C120.149 57.6476 120.168 58.5052 120.067 59.3606C118.962 63.8766 115.891 66.4734 112.551 67.1797C111.397 67.4253 110.893 68.7939 111.691 69.623C111.729 69.6624 111.764 69.7047 111.795 69.7496L111.811 69.7715C111.851 69.8289 111.895 69.8832 111.944 69.9339L121.217 79.6661C121.772 80.2495 122.708 80.2583 123.307 79.6858L133.328 70.1319C133.579 69.8922 133.905 69.7093 134.245 69.7802C134.718 69.8786 135.128 70.2009 135.278 70.7153C135.657 72.0247 136.342 73.2529 137.342 74.2947C142.064 79.2187 151.254 77.3741 153.188 68.6974C153.285 68.2544 153.305 67.7894 153.234 67.3507C152.601 63.0409 150.098 60.4024 147.113 59.3913C146.652 59.2347 146.35 58.8819 146.231 58.4702C146.124 58.1014 146.337 57.7376 146.615 57.4727L156.529 48.0234C157.111 47.4693 157.156 46.574 156.652 45.9862C156.65 45.9848 156.65 45.9827 156.652 45.9813Z" fill="url(#paint0_linear_10001_31965)"/>
<path d="M100.873 72.0566L100.872 72.0576C106.129 71.9581 110.394 76.3205 110.371 81.6787C110.364 83.2674 109.979 84.7631 109.312 86.0801L109.312 86.083C109.159 86.3812 109.197 86.5548 109.278 86.6816C109.383 86.8455 109.615 87.0175 109.998 87.168C110.754 87.4651 111.852 87.5863 112.741 87.5869L122.62 87.5938C122.827 87.5939 123.033 87.6135 123.235 87.6523C123.29 87.6628 123.348 87.6701 123.418 87.6797C123.484 87.6887 123.564 87.6993 123.645 87.7148C124.518 87.8837 125.167 88.6684 125.161 89.5957L125.162 89.5967L125.113 101.967C125.111 102.533 125.255 103.17 125.5 103.579C125.622 103.782 125.746 103.892 125.85 103.937C125.935 103.973 126.051 103.986 126.23 103.894C129.174 102.365 132.97 102.41 136.639 105.021H136.638C136.991 105.272 137.314 105.591 137.573 105.944L137.681 106.098L137.911 106.458C142.607 114.026 137.453 122.058 130.393 122.05V122.051C128.879 122.051 127.451 121.671 126.19 121.012L126.189 121.011C126.001 120.911 125.882 120.928 125.795 120.968C125.685 121.018 125.555 121.14 125.428 121.365C125.173 121.815 125.025 122.506 125.022 123.106L124.972 135.489C124.966 136.466 124.242 137.295 123.285 137.39L123.091 137.399L109.545 137.34H109.517L109.488 137.336L109.299 137.309H109.255C109.245 137.309 109.235 137.306 109.226 137.306C107.71 137.287 106.971 135.585 107.73 134.358L107.731 134.357C109.445 131.602 109.708 127.771 107.311 123.984C106.8 123.362 106.206 122.82 105.551 122.364C103.911 121.377 102.273 120.927 100.736 120.901C99.1992 120.919 97.5598 121.357 95.917 122.337C95.2549 122.792 94.659 123.332 94.1445 123.952C91.7286 127.728 91.9684 131.559 93.666 134.319L93.7334 134.437C94.3843 135.664 93.6213 137.269 92.1387 137.265L92.0859 137.266L91.9062 137.29L91.8779 137.294H91.8496L78.2988 137.285C77.81 137.285 77.3736 137.089 77.0479 136.779C76.8273 136.57 76.7364 136.311 76.6973 136.081C76.6598 135.861 76.6641 135.628 76.6641 135.459V135.458L76.6865 120.987C76.4729 121.025 76.2752 120.972 76.123 120.893C75.8611 120.756 75.5624 120.737 75.2842 120.881L75.2832 120.88C74.7494 121.164 74.1481 121.203 73.6016 121.109C73.5369 121.098 73.4698 121.086 73.4004 121.075H73.3994C73.3718 121.071 73.3419 121.071 73.3135 121.077L73.3057 121.078L73.2969 121.08C72.8298 121.156 72.3547 121.195 71.8701 121.199H71.8652C70.0398 121.195 68.096 120.625 66.1318 119.235V119.236C65.7963 119.002 65.4995 118.694 65.2725 118.354L65.2705 118.352C65.0282 117.982 64.8331 117.612 64.6504 117.267L64.4893 116.954C63.7112 115.396 63.3418 113.848 63.3418 112.381C63.3418 111.985 63.3743 111.607 63.4219 111.238C63.9643 106.897 67.5532 103.537 71.9092 103.527H71.9102C72.3921 103.527 72.8826 103.616 73.3838 103.709C73.4208 103.715 73.4586 103.716 73.4951 103.711C73.875 103.657 74.2449 103.626 74.6055 103.613C74.7912 103.607 74.9728 103.634 75.1436 103.688L75.3105 103.751L75.3379 103.765C75.5706 103.888 75.8108 103.894 76.0459 103.819L76.1641 103.788C76.2879 103.762 76.4286 103.752 76.5762 103.781C76.6517 103.796 76.7225 103.738 76.7227 103.661L76.7451 89.5625L76.7441 89.1992C76.746 89.0649 76.7529 88.9222 76.7734 88.7881C76.817 88.5048 76.9299 88.1827 77.2314 87.9492C77.5119 87.7321 77.8551 87.5923 78.2324 87.5693C78.5588 87.5109 78.8901 87.4819 79.2217 87.4834L88.9014 87.5283C89.7913 87.5324 90.8915 87.4171 91.6504 87.124C92.0345 86.9756 92.2686 86.8055 92.375 86.6416C92.4576 86.5144 92.4978 86.34 92.3467 86.04V86.0391C91.6749 84.7153 91.3063 83.2172 91.3018 81.6318V81.6309C91.3086 76.2644 95.6021 71.9163 100.873 72.0566Z" fill="#191D2A"/>
<path d="M100.873 72.0566L100.872 72.0576C106.129 71.9581 110.394 76.3205 110.371 81.6787C110.364 83.2674 109.979 84.7631 109.312 86.0801L109.312 86.083C109.159 86.3812 109.197 86.5548 109.278 86.6816C109.383 86.8455 109.615 87.0175 109.998 87.168C110.754 87.4651 111.852 87.5863 112.741 87.5869L122.62 87.5938C122.827 87.5939 123.033 87.6135 123.235 87.6523C123.29 87.6628 123.348 87.6701 123.418 87.6797C123.484 87.6887 123.564 87.6993 123.645 87.7148C124.518 87.8837 125.167 88.6684 125.161 89.5957L125.162 89.5967L125.113 101.967C125.111 102.533 125.255 103.17 125.5 103.579C125.622 103.782 125.746 103.892 125.85 103.937C125.935 103.973 126.051 103.986 126.23 103.894C129.174 102.365 132.97 102.41 136.639 105.021H136.638C136.991 105.272 137.314 105.591 137.573 105.944L137.681 106.098L137.911 106.458C142.607 114.026 137.453 122.058 130.393 122.05V122.051C128.879 122.051 127.451 121.671 126.19 121.012L126.189 121.011C126.001 120.911 125.882 120.928 125.795 120.968C125.685 121.018 125.555 121.14 125.428 121.365C125.173 121.815 125.025 122.506 125.022 123.106L124.972 135.489C124.966 136.466 124.242 137.295 123.285 137.39L123.091 137.399L109.545 137.34H109.517L109.488 137.336L109.299 137.309H109.255C109.245 137.309 109.235 137.306 109.226 137.306C107.71 137.287 106.971 135.585 107.73 134.358L107.731 134.357C109.445 131.602 109.708 127.771 107.311 123.984C106.8 123.362 106.206 122.82 105.551 122.364C103.911 121.377 102.273 120.927 100.736 120.901C99.1992 120.919 97.5598 121.357 95.917 122.337C95.2549 122.792 94.659 123.332 94.1445 123.952C91.7286 127.728 91.9684 131.559 93.666 134.319L93.7334 134.437C94.3843 135.664 93.6213 137.269 92.1387 137.265L92.0859 137.266L91.9062 137.29L91.8779 137.294H91.8496L78.2988 137.285C77.81 137.285 77.3736 137.089 77.0479 136.779C76.8273 136.57 76.7364 136.311 76.6973 136.081C76.6598 135.861 76.6641 135.628 76.6641 135.459V135.458L76.6865 120.987C76.4729 121.025 76.2752 120.972 76.123 120.893C75.8611 120.756 75.5624 120.737 75.2842 120.881L75.2832 120.88C74.7494 121.164 74.1481 121.203 73.6016 121.109C73.5369 121.098 73.4698 121.086 73.4004 121.075H73.3994C73.3718 121.071 73.3419 121.071 73.3135 121.077L73.3057 121.078L73.2969 121.08C72.8298 121.156 72.3547 121.195 71.8701 121.199H71.8652C70.0398 121.195 68.096 120.625 66.1318 119.235V119.236C65.7963 119.002 65.4995 118.694 65.2725 118.354L65.2705 118.352C65.0282 117.982 64.8331 117.612 64.6504 117.267L64.4893 116.954C63.7112 115.396 63.3418 113.848 63.3418 112.381C63.3418 111.985 63.3743 111.607 63.4219 111.238C63.9643 106.897 67.5532 103.537 71.9092 103.527H71.9102C72.3921 103.527 72.8826 103.616 73.3838 103.709C73.4208 103.715 73.4586 103.716 73.4951 103.711C73.875 103.657 74.2449 103.626 74.6055 103.613C74.7912 103.607 74.9728 103.634 75.1436 103.688L75.3105 103.751L75.3379 103.765C75.5706 103.888 75.8108 103.894 76.0459 103.819L76.1641 103.788C76.2879 103.762 76.4286 103.752 76.5762 103.781C76.6517 103.796 76.7225 103.738 76.7227 103.661L76.7451 89.5625L76.7441 89.1992C76.746 89.0649 76.7529 88.9222 76.7734 88.7881C76.817 88.5048 76.9299 88.1827 77.2314 87.9492C77.5119 87.7321 77.8551 87.5923 78.2324 87.5693C78.5588 87.5109 78.8901 87.4819 79.2217 87.4834L88.9014 87.5283C89.7913 87.5324 90.8915 87.4171 91.6504 87.124C92.0345 86.9756 92.2686 86.8055 92.375 86.6416C92.4576 86.5144 92.4978 86.34 92.3467 86.04V86.0391C91.6749 84.7153 91.3063 83.2172 91.3018 81.6318V81.6309C91.3086 76.2644 95.6021 71.9163 100.873 72.0566Z" stroke="#94AECF" stroke-opacity="0.11" stroke-width="0.831412"/>
<path d="M100.873 72.0566L100.872 72.0576C106.129 71.9581 110.394 76.3205 110.371 81.6787C110.364 83.2674 109.979 84.7631 109.312 86.0801L109.312 86.083C109.159 86.3812 109.197 86.5548 109.278 86.6816C109.383 86.8455 109.615 87.0175 109.998 87.168C110.754 87.4651 111.852 87.5863 112.741 87.5869L122.62 87.5938C122.827 87.5939 123.033 87.6135 123.235 87.6523C123.29 87.6628 123.348 87.6701 123.418 87.6797C123.484 87.6887 123.564 87.6993 123.645 87.7148C124.518 87.8837 125.167 88.6684 125.161 89.5957L125.162 89.5967L125.113 101.967C125.111 102.533 125.255 103.17 125.5 103.579C125.622 103.782 125.746 103.892 125.85 103.937C125.935 103.973 126.051 103.986 126.23 103.894C129.174 102.365 132.97 102.41 136.639 105.021H136.638C136.991 105.272 137.314 105.591 137.573 105.944L137.681 106.098L137.911 106.458C142.607 114.026 137.453 122.058 130.393 122.05V122.051C128.879 122.051 127.451 121.671 126.19 121.012L126.189 121.011C126.001 120.911 125.882 120.928 125.795 120.968C125.685 121.018 125.555 121.14 125.428 121.365C125.173 121.815 125.025 122.506 125.022 123.106L124.972 135.489C124.966 136.466 124.242 137.295 123.285 137.39L123.091 137.399L109.545 137.34H109.517L109.488 137.336L109.299 137.309H109.255C109.245 137.309 109.235 137.306 109.226 137.306C107.71 137.287 106.971 135.585 107.73 134.358L107.731 134.357C109.445 131.602 109.708 127.771 107.311 123.984C106.8 123.362 106.206 122.82 105.551 122.364C103.911 121.377 102.273 120.927 100.736 120.901C99.1992 120.919 97.5598 121.357 95.917 122.337C95.2549 122.792 94.659 123.332 94.1445 123.952C91.7286 127.728 91.9684 131.559 93.666 134.319L93.7334 134.437C94.3843 135.664 93.6213 137.269 92.1387 137.265L92.0859 137.266L91.9062 137.29L91.8779 137.294H91.8496L78.2988 137.285C77.81 137.285 77.3736 137.089 77.0479 136.779C76.8273 136.57 76.7364 136.311 76.6973 136.081C76.6598 135.861 76.6641 135.628 76.6641 135.459V135.458L76.6865 120.987C76.4729 121.025 76.2752 120.972 76.123 120.893C75.8611 120.756 75.5624 120.737 75.2842 120.881L75.2832 120.88C74.7494 121.164 74.1481 121.203 73.6016 121.109C73.5369 121.098 73.4698 121.086 73.4004 121.075H73.3994C73.3718 121.071 73.3419 121.071 73.3135 121.077L73.3057 121.078L73.2969 121.08C72.8298 121.156 72.3547 121.195 71.8701 121.199H71.8652C70.0398 121.195 68.096 120.625 66.1318 119.235V119.236C65.7963 119.002 65.4995 118.694 65.2725 118.354L65.2705 118.352C65.0282 117.982 64.8331 117.612 64.6504 117.267L64.4893 116.954C63.7112 115.396 63.3418 113.848 63.3418 112.381C63.3418 111.985 63.3743 111.607 63.4219 111.238C63.9643 106.897 67.5532 103.537 71.9092 103.527H71.9102C72.3921 103.527 72.8826 103.616 73.3838 103.709C73.4208 103.715 73.4586 103.716 73.4951 103.711C73.875 103.657 74.2449 103.626 74.6055 103.613C74.7912 103.607 74.9728 103.634 75.1436 103.688L75.3105 103.751L75.3379 103.765C75.5706 103.888 75.8108 103.894 76.0459 103.819L76.1641 103.788C76.2879 103.762 76.4286 103.752 76.5762 103.781C76.6517 103.796 76.7225 103.738 76.7227 103.661L76.7451 89.5625L76.7441 89.1992C76.746 89.0649 76.7529 88.9222 76.7734 88.7881C76.817 88.5048 76.9299 88.1827 77.2314 87.9492C77.5119 87.7321 77.8551 87.5923 78.2324 87.5693C78.5588 87.5109 78.8901 87.4819 79.2217 87.4834L88.9014 87.5283C89.7913 87.5324 90.8915 87.4171 91.6504 87.124C92.0345 86.9756 92.2686 86.8055 92.375 86.6416C92.4576 86.5144 92.4978 86.34 92.3467 86.04V86.0391C91.6749 84.7153 91.3063 83.2172 91.3018 81.6318V81.6309C91.3086 76.2644 95.6021 71.9163 100.873 72.0566Z" stroke="url(#paint1_radial_10001_31965)" stroke-width="0.831412"/>
<path d="M52.6592 23.9238L52.6582 23.9248C57.9175 23.8251 62.1842 28.185 62.1592 33.5459V33.5469C62.15 35.1324 61.7682 36.6304 61.0967 37.9482L61.0957 37.9492C60.9431 38.2481 60.9829 38.4225 61.0645 38.5498C61.1698 38.7139 61.403 38.8859 61.7861 39.0361C62.5429 39.3328 63.6416 39.4535 64.5312 39.4541L74.4092 39.46C74.6156 39.4601 74.8217 39.4797 75.0244 39.5186C75.079 39.529 75.1359 39.5373 75.2061 39.5469C75.2726 39.5559 75.3528 39.5664 75.4336 39.582C76.3086 39.7514 76.955 40.5372 76.9551 41.4619V41.4639L76.9023 53.8359C76.9 54.4016 77.0439 55.0382 77.2881 55.4473C77.4096 55.6506 77.5332 55.7601 77.6367 55.8047C77.721 55.8409 77.8355 55.8542 78.0146 55.7617C80.9609 54.2321 84.7625 54.276 88.4297 56.8887H88.4287C88.8353 57.1777 89.1928 57.55 89.4697 57.9629L89.4707 57.9648L89.7021 58.3252C94.3231 65.7732 89.4063 73.6716 82.5156 73.9121L82.1807 73.917C80.6658 73.917 79.2385 73.5384 77.9805 72.8799L77.8506 72.8262C77.7332 72.7915 77.6495 72.8082 77.583 72.8389C77.4725 72.8899 77.3419 73.0132 77.2148 73.2373C76.9605 73.6861 76.814 74.3751 76.8115 74.9746L76.7598 87.335C76.7596 87.3776 76.7555 87.42 76.7471 87.4619C76.6472 87.9583 76.1039 88.1063 75.7471 87.9268C75.5432 87.8243 75.3166 87.7623 75.0742 87.748C75.0381 87.7489 75.001 87.7474 74.9639 87.7383V87.7373C74.8187 87.7014 74.7348 87.6765 74.6523 87.666L74.5684 87.6602L62.2559 87.6816C62.1006 87.6819 61.8895 87.682 61.6865 87.6406C61.4769 87.5979 61.2376 87.5037 61.0527 87.2881C60.94 87.1565 60.8524 86.9977 60.8057 86.8242C60.7453 86.5995 60.7947 86.3883 60.8232 86.2734L60.8506 86.1641L60.8877 86.0547H60.8867L60.918 85.9756L60.9238 85.959L60.9316 85.9424C61.563 84.6607 61.9306 83.2146 61.9307 81.6807V81.6611C61.9307 80.7109 61.7543 79.8236 61.5127 78.9746C60.3843 75.0618 56.8936 72.1759 52.7119 72.1738L52.5215 72.1777H52.5039L52.2754 72.1738C48.0892 72.1758 44.6001 75.0617 43.4717 78.9746C43.2299 79.8244 43.0518 80.7111 43.0518 81.6562V81.7285L43.0576 82.0107C43.1016 83.2302 43.3733 84.3908 43.8262 85.4512L44.0479 85.9336L44.0557 85.9482L44.0752 85.9971L44.0869 86.0205L44.0908 86.0303C44.1109 86.0763 44.1271 86.124 44.1387 86.1729L44.1641 86.2783C44.1907 86.3903 44.2403 86.6026 44.1797 86.8271C44.1358 86.9894 44.0553 87.1383 43.9531 87.2637C43.7674 87.4914 43.521 87.5905 43.3047 87.6357C43.0952 87.6795 42.8769 87.68 42.7158 87.6797L30.4209 87.6582C30.3055 87.6583 30.2143 87.6882 30.0264 87.7354C29.9868 87.7452 29.9475 87.7465 29.9092 87.7451C29.7079 87.7576 29.518 87.8027 29.3438 87.875C29.1312 87.9632 28.8809 87.9713 28.665 87.8848C28.4331 87.7917 28.2178 87.5712 28.2178 87.2383L28.2275 74.8574C28.228 74.2558 28.0843 73.5629 27.832 73.1113C27.7061 72.8861 27.5767 72.7624 27.4668 72.7109C27.3787 72.6697 27.2597 72.6533 27.0693 72.751L27.0684 72.75C25.8094 73.4065 24.3803 73.7766 22.8662 73.7676V73.7686C15.6921 73.7409 10.5241 65.4256 15.6553 57.7832L15.6572 57.7793C15.9371 57.3716 16.2962 56.9967 16.7051 56.7109C20.2684 54.1963 23.9486 54.0962 26.8447 55.4932L27.123 55.6328L27.125 55.6348C27.3023 55.7293 27.4157 55.7167 27.499 55.6816C27.6021 55.6381 27.7265 55.5296 27.8496 55.3262C28.0969 54.9175 28.2456 54.2798 28.2461 53.7148L28.2578 41.3428C28.2582 40.3343 29.0244 39.499 30.0137 39.4375C30.343 39.3785 30.6771 39.3492 31.0117 39.3506L40.6953 39.3916C41.5844 39.3954 42.6828 39.2816 43.4404 38.9893C43.8241 38.8412 44.058 38.6702 44.1641 38.5068C44.246 38.3803 44.2859 38.2069 44.1357 37.9082C43.4661 36.5873 43.0908 35.0884 43.0908 33.498L43.1035 32.998C43.3665 27.866 47.5573 23.7901 52.6592 23.9238ZM29.5127 87.3857C29.5144 87.3983 29.5158 87.4107 29.5186 87.4229C29.5158 87.4107 29.5153 87.3983 29.5137 87.3857H29.5127Z" fill="#191D2A"/>
<path d="M52.6592 23.9238L52.6582 23.9248C57.9175 23.8251 62.1842 28.185 62.1592 33.5459V33.5469C62.15 35.1324 61.7682 36.6304 61.0967 37.9482L61.0957 37.9492C60.9431 38.2481 60.9829 38.4225 61.0645 38.5498C61.1698 38.7139 61.403 38.8859 61.7861 39.0361C62.5429 39.3328 63.6416 39.4535 64.5312 39.4541L74.4092 39.46C74.6156 39.4601 74.8217 39.4797 75.0244 39.5186C75.079 39.529 75.1359 39.5373 75.2061 39.5469C75.2726 39.5559 75.3528 39.5664 75.4336 39.582C76.3086 39.7514 76.955 40.5372 76.9551 41.4619V41.4639L76.9023 53.8359C76.9 54.4016 77.0439 55.0382 77.2881 55.4473C77.4096 55.6506 77.5332 55.7601 77.6367 55.8047C77.721 55.8409 77.8355 55.8542 78.0146 55.7617C80.9609 54.2321 84.7625 54.276 88.4297 56.8887H88.4287C88.8353 57.1777 89.1928 57.55 89.4697 57.9629L89.4707 57.9648L89.7021 58.3252C94.3231 65.7732 89.4063 73.6716 82.5156 73.9121L82.1807 73.917C80.6658 73.917 79.2385 73.5384 77.9805 72.8799L77.8506 72.8262C77.7332 72.7915 77.6495 72.8082 77.583 72.8389C77.4725 72.8899 77.3419 73.0132 77.2148 73.2373C76.9605 73.6861 76.814 74.3751 76.8115 74.9746L76.7598 87.335C76.7596 87.3776 76.7555 87.42 76.7471 87.4619C76.6472 87.9583 76.1039 88.1063 75.7471 87.9268C75.5432 87.8243 75.3166 87.7623 75.0742 87.748C75.0381 87.7489 75.001 87.7474 74.9639 87.7383V87.7373C74.8187 87.7014 74.7348 87.6765 74.6523 87.666L74.5684 87.6602L62.2559 87.6816C62.1006 87.6819 61.8895 87.682 61.6865 87.6406C61.4769 87.5979 61.2376 87.5037 61.0527 87.2881C60.94 87.1565 60.8524 86.9977 60.8057 86.8242C60.7453 86.5995 60.7947 86.3883 60.8232 86.2734L60.8506 86.1641L60.8877 86.0547H60.8867L60.918 85.9756L60.9238 85.959L60.9316 85.9424C61.563 84.6607 61.9306 83.2146 61.9307 81.6807V81.6611C61.9307 80.7109 61.7543 79.8236 61.5127 78.9746C60.3843 75.0618 56.8936 72.1759 52.7119 72.1738L52.5215 72.1777H52.5039L52.2754 72.1738C48.0892 72.1758 44.6001 75.0617 43.4717 78.9746C43.2299 79.8244 43.0518 80.7111 43.0518 81.6562V81.7285L43.0576 82.0107C43.1016 83.2302 43.3733 84.3908 43.8262 85.4512L44.0479 85.9336L44.0557 85.9482L44.0752 85.9971L44.0869 86.0205L44.0908 86.0303C44.1109 86.0763 44.1271 86.124 44.1387 86.1729L44.1641 86.2783C44.1907 86.3903 44.2403 86.6026 44.1797 86.8271C44.1358 86.9894 44.0553 87.1383 43.9531 87.2637C43.7674 87.4914 43.521 87.5905 43.3047 87.6357C43.0952 87.6795 42.8769 87.68 42.7158 87.6797L30.4209 87.6582C30.3055 87.6583 30.2143 87.6882 30.0264 87.7354C29.9868 87.7452 29.9475 87.7465 29.9092 87.7451C29.7079 87.7576 29.518 87.8027 29.3438 87.875C29.1312 87.9632 28.8809 87.9713 28.665 87.8848C28.4331 87.7917 28.2178 87.5712 28.2178 87.2383L28.2275 74.8574C28.228 74.2558 28.0843 73.5629 27.832 73.1113C27.7061 72.8861 27.5767 72.7624 27.4668 72.7109C27.3787 72.6697 27.2597 72.6533 27.0693 72.751L27.0684 72.75C25.8094 73.4065 24.3803 73.7766 22.8662 73.7676V73.7686C15.6921 73.7409 10.5241 65.4256 15.6553 57.7832L15.6572 57.7793C15.9371 57.3716 16.2962 56.9967 16.7051 56.7109C20.2684 54.1963 23.9486 54.0962 26.8447 55.4932L27.123 55.6328L27.125 55.6348C27.3023 55.7293 27.4157 55.7167 27.499 55.6816C27.6021 55.6381 27.7265 55.5296 27.8496 55.3262C28.0969 54.9175 28.2456 54.2798 28.2461 53.7148L28.2578 41.3428C28.2582 40.3343 29.0244 39.499 30.0137 39.4375C30.343 39.3785 30.6771 39.3492 31.0117 39.3506L40.6953 39.3916C41.5844 39.3954 42.6828 39.2816 43.4404 38.9893C43.8241 38.8412 44.058 38.6702 44.1641 38.5068C44.246 38.3803 44.2859 38.2069 44.1357 37.9082C43.4661 36.5873 43.0908 35.0884 43.0908 33.498L43.1035 32.998C43.3665 27.866 47.5573 23.7901 52.6592 23.9238ZM29.5127 87.3857C29.5144 87.3983 29.5158 87.4107 29.5186 87.4229C29.5158 87.4107 29.5153 87.3983 29.5137 87.3857H29.5127Z" stroke="#94AECF" stroke-opacity="0.11" stroke-width="0.831412"/>
<path d="M52.6592 23.9238L52.6582 23.9248C57.9175 23.8251 62.1842 28.185 62.1592 33.5459V33.5469C62.15 35.1324 61.7682 36.6304 61.0967 37.9482L61.0957 37.9492C60.9431 38.2481 60.9829 38.4225 61.0645 38.5498C61.1698 38.7139 61.403 38.8859 61.7861 39.0361C62.5429 39.3328 63.6416 39.4535 64.5312 39.4541L74.4092 39.46C74.6156 39.4601 74.8217 39.4797 75.0244 39.5186C75.079 39.529 75.1359 39.5373 75.2061 39.5469C75.2726 39.5559 75.3528 39.5664 75.4336 39.582C76.3086 39.7514 76.955 40.5372 76.9551 41.4619V41.4639L76.9023 53.8359C76.9 54.4016 77.0439 55.0382 77.2881 55.4473C77.4096 55.6506 77.5332 55.7601 77.6367 55.8047C77.721 55.8409 77.8355 55.8542 78.0146 55.7617C80.9609 54.2321 84.7625 54.276 88.4297 56.8887H88.4287C88.8353 57.1777 89.1928 57.55 89.4697 57.9629L89.4707 57.9648L89.7021 58.3252C94.3231 65.7732 89.4063 73.6716 82.5156 73.9121L82.1807 73.917C80.6658 73.917 79.2385 73.5384 77.9805 72.8799L77.8506 72.8262C77.7332 72.7915 77.6495 72.8082 77.583 72.8389C77.4725 72.8899 77.3419 73.0132 77.2148 73.2373C76.9605 73.6861 76.814 74.3751 76.8115 74.9746L76.7598 87.335C76.7596 87.3776 76.7555 87.42 76.7471 87.4619C76.6472 87.9583 76.1039 88.1063 75.7471 87.9268C75.5432 87.8243 75.3166 87.7623 75.0742 87.748C75.0381 87.7489 75.001 87.7474 74.9639 87.7383V87.7373C74.8187 87.7014 74.7348 87.6765 74.6523 87.666L74.5684 87.6602L62.2559 87.6816C62.1006 87.6819 61.8895 87.682 61.6865 87.6406C61.4769 87.5979 61.2376 87.5037 61.0527 87.2881C60.94 87.1565 60.8524 86.9977 60.8057 86.8242C60.7453 86.5995 60.7947 86.3883 60.8232 86.2734L60.8506 86.1641L60.8877 86.0547H60.8867L60.918 85.9756L60.9238 85.959L60.9316 85.9424C61.563 84.6607 61.9306 83.2146 61.9307 81.6807V81.6611C61.9307 80.7109 61.7543 79.8236 61.5127 78.9746C60.3843 75.0618 56.8936 72.1759 52.7119 72.1738L52.5215 72.1777H52.5039L52.2754 72.1738C48.0892 72.1758 44.6001 75.0617 43.4717 78.9746C43.2299 79.8244 43.0518 80.7111 43.0518 81.6562V81.7285L43.0576 82.0107C43.1016 83.2302 43.3733 84.3908 43.8262 85.4512L44.0479 85.9336L44.0557 85.9482L44.0752 85.9971L44.0869 86.0205L44.0908 86.0303C44.1109 86.0763 44.1271 86.124 44.1387 86.1729L44.1641 86.2783C44.1907 86.3903 44.2403 86.6026 44.1797 86.8271C44.1358 86.9894 44.0553 87.1383 43.9531 87.2637C43.7674 87.4914 43.521 87.5905 43.3047 87.6357C43.0952 87.6795 42.8769 87.68 42.7158 87.6797L30.4209 87.6582C30.3055 87.6583 30.2143 87.6882 30.0264 87.7354C29.9868 87.7452 29.9475 87.7465 29.9092 87.7451C29.7079 87.7576 29.518 87.8027 29.3438 87.875C29.1312 87.9632 28.8809 87.9713 28.665 87.8848C28.4331 87.7917 28.2178 87.5712 28.2178 87.2383L28.2275 74.8574C28.228 74.2558 28.0843 73.5629 27.832 73.1113C27.7061 72.8861 27.5767 72.7624 27.4668 72.7109C27.3787 72.6697 27.2597 72.6533 27.0693 72.751L27.0684 72.75C25.8094 73.4065 24.3803 73.7766 22.8662 73.7676V73.7686C15.6921 73.7409 10.5241 65.4256 15.6553 57.7832L15.6572 57.7793C15.9371 57.3716 16.2962 56.9967 16.7051 56.7109C20.2684 54.1963 23.9486 54.0962 26.8447 55.4932L27.123 55.6328L27.125 55.6348C27.3023 55.7293 27.4157 55.7167 27.499 55.6816C27.6021 55.6381 27.7265 55.5296 27.8496 55.3262C28.0969 54.9175 28.2456 54.2798 28.2461 53.7148L28.2578 41.3428C28.2582 40.3343 29.0244 39.499 30.0137 39.4375C30.343 39.3785 30.6771 39.3492 31.0117 39.3506L40.6953 39.3916C41.5844 39.3954 42.6828 39.2816 43.4404 38.9893C43.8241 38.8412 44.058 38.6702 44.1641 38.5068C44.246 38.3803 44.2859 38.2069 44.1357 37.9082C43.4661 36.5873 43.0908 35.0884 43.0908 33.498L43.1035 32.998C43.3665 27.866 47.5573 23.7901 52.6592 23.9238ZM29.5127 87.3857C29.5144 87.3983 29.5158 87.4107 29.5186 87.4229C29.5158 87.4107 29.5153 87.3983 29.5137 87.3857H29.5127Z" stroke="url(#paint2_radial_10001_31965)" stroke-width="0.831412"/>
<mask id="path-4-outside-1_10001_31965" maskUnits="userSpaceOnUse" x="13.8125" y="72.1016" width="63" height="65" fill="black">
<rect fill="white" x="13.8125" y="72.1016" width="63" height="65"/>
<path d="M65.7452 104.771C67.2603 103.417 69.1906 102.536 71.319 102.368C71.7167 102.336 72.0419 102.661 72.0443 103.06C72.0443 102.661 72.3684 102.336 72.764 102.385C72.9894 102.413 73.2045 102.449 73.4119 102.486C73.5493 102.51 73.6894 102.513 73.828 102.497C74.2447 102.448 74.6601 102.417 75.0755 102.413C75.4614 102.413 75.7953 102.113 75.7958 101.727L75.8124 89.435C75.8124 89.0306 75.5318 88.7381 75.1962 88.6897C75.183 88.6878 75.1699 88.6854 75.157 88.6818C75.1378 88.6766 75.118 88.6736 75.0981 88.6728L75.0812 88.6721C75.0381 88.6704 74.9957 88.662 74.9552 88.6472L74.9439 88.643C74.9205 88.6344 74.8965 88.6276 74.8721 88.6227L74.8151 88.6112C74.733 88.5946 74.6494 88.5863 74.5657 88.5864L61.8026 88.608C61.7596 88.6081 61.7168 88.6045 61.6744 88.5972C60.6611 88.413 59.9637 87.5795 59.8693 86.6035L59.8432 86.4583C59.8373 86.425 59.834 86.3913 59.8349 86.3575C59.8424 86.068 59.9141 85.7752 60.0499 85.4902C60.0506 85.4888 60.0495 85.4871 60.048 85.4871C60.0464 85.4871 60.0454 85.4856 60.0459 85.4842L60.0709 85.4188C60.0725 85.4146 60.0746 85.4107 60.0772 85.4071L60.084 85.3978C60.0886 85.3915 60.0926 85.3849 60.096 85.378C60.6675 84.2204 60.9967 82.9278 60.9967 81.5457V81.526C60.9967 80.7123 60.8454 79.9249 60.6195 79.1375C59.6062 75.6436 56.5136 73.1016 52.8311 73.1016L52.6424 73.106H52.6008L52.4056 73.1016C50.6729 73.1016 49.0827 73.6784 47.7667 74.6369C46.2841 75.7182 45.1523 77.2842 44.6194 79.1375C44.4878 79.5849 44.3957 80.0346 44.3299 80.4886C44.2794 80.8285 44.2377 81.1707 44.2377 81.5194V81.5479C44.2377 82.9341 44.5711 84.2303 45.1501 85.3862L45.1677 85.4191L45.1809 85.4542L45.197 85.4945C45.1978 85.4966 45.1971 85.499 45.1952 85.5002C45.1933 85.5015 45.1925 85.504 45.1935 85.5061C45.3148 85.7694 45.3868 86.0483 45.4001 86.3225C45.4031 86.3839 45.3967 86.4453 45.3853 86.5057L45.3695 86.5903C45.2817 87.5729 44.5799 88.4151 43.5644 88.5994C43.5235 88.6067 43.4821 88.6103 43.4406 88.6102L30.6565 88.5886C30.5852 88.5885 30.5141 88.595 30.4441 88.6082L30.365 88.6249C30.3417 88.6298 30.3189 88.6365 30.2966 88.6448C30.249 88.6627 30.1989 88.6728 30.1481 88.6747L30.1107 88.6761C29.7466 88.6915 29.4264 89.0051 29.4242 89.4328L29.4479 103.719C29.4482 103.893 29.3887 104.061 29.2795 104.196C28.8737 104.681 28.2771 104.992 27.617 104.992C27.288 104.992 26.9458 104.913 26.6365 104.749C25.5333 104.176 24.2985 103.852 22.9781 103.852C21.2345 103.852 19.3373 104.415 17.4247 105.775C17.1352 105.979 16.8676 106.249 16.6724 106.547C15.363 108.51 14.8125 110.471 14.8125 112.287C14.8125 116.956 18.4753 120.716 22.9562 120.722H22.9716C24.2875 120.722 25.5311 120.402 26.6322 119.825C26.9326 119.67 27.2616 119.591 27.5819 119.591C28.3056 119.591 28.9439 119.966 29.3409 120.518C29.4322 120.645 29.4814 120.798 29.4816 120.954L29.5032 135.328C29.5032 135.762 29.841 136.086 30.2204 136.086L43.6076 136.065C43.6796 136.065 43.7515 136.059 43.8226 136.048C43.8946 136.037 43.9672 136.032 44.04 136.032H44.0645C44.2816 136.027 44.4198 135.953 44.5426 135.828C44.6149 135.746 44.6709 135.643 44.7035 135.529C44.7459 135.38 44.7143 135.224 44.6723 135.075C44.6299 134.925 44.5661 134.783 44.4874 134.648C43.6163 133.163 43.1126 131.42 43.1126 129.561C43.1126 127.522 43.7201 125.341 45.0734 123.227L45.0997 123.188L45.126 123.157C45.716 122.44 46.4047 121.812 47.1658 121.293L47.1833 121.282L47.1987 121.271C49.0082 120.183 50.8571 119.676 52.6095 119.645H52.6315C54.3839 119.676 56.2307 120.183 58.0401 121.271C58.0518 121.277 58.0629 121.284 58.0732 121.292L58.0774 121.295C58.8385 121.817 59.525 122.442 60.115 123.159L60.1435 123.194L60.1676 123.229C61.5187 125.346 62.1284 127.524 62.1262 129.568C62.1262 131.425 61.6271 133.172 60.7502 134.661C60.6737 134.791 60.6113 134.929 60.5691 135.074C60.5254 135.225 60.4926 135.384 60.537 135.534C60.5704 135.647 60.6268 135.749 60.6984 135.83C60.819 135.955 60.9616 136.029 61.1765 136.034H61.2547C61.2888 136.034 61.3228 136.037 61.3564 136.043C61.4645 136.059 61.5735 136.067 61.6828 136.067L75.0184 136.089C75.3979 136.089 75.7356 135.764 75.7378 135.33L75.7602 123.083C75.7611 122.58 75.3181 122.201 74.8145 122.201H74.8101C73.8946 122.193 72.9838 122.124 72.0684 122.132C72.0458 122.133 72.0231 122.133 72.0005 122.133C70.0265 122.133 67.9275 121.505 65.8768 120.115L65.6443 119.974C65.21 119.661 64.8262 119.27 64.5213 118.814C63.7493 117.658 63.2163 116.481 62.872 115.312C62.7667 114.947 62.6877 114.583 62.6197 114.224C62.4925 113.557 62.4136 112.899 62.4136 112.252C62.4136 109.267 63.701 106.591 65.7452 104.771Z"/>
</mask>
<path d="M65.7452 104.771C67.2603 103.417 69.1906 102.536 71.319 102.368C71.7167 102.336 72.0419 102.661 72.0443 103.06C72.0443 102.661 72.3684 102.336 72.764 102.385C72.9894 102.413 73.2045 102.449 73.4119 102.486C73.5493 102.51 73.6894 102.513 73.828 102.497C74.2447 102.448 74.6601 102.417 75.0755 102.413C75.4614 102.413 75.7953 102.113 75.7958 101.727L75.8124 89.435C75.8124 89.0306 75.5318 88.7381 75.1962 88.6897C75.183 88.6878 75.1699 88.6854 75.157 88.6818C75.1378 88.6766 75.118 88.6736 75.0981 88.6728L75.0812 88.6721C75.0381 88.6704 74.9957 88.662 74.9552 88.6472L74.9439 88.643C74.9205 88.6344 74.8965 88.6276 74.8721 88.6227L74.8151 88.6112C74.733 88.5946 74.6494 88.5863 74.5657 88.5864L61.8026 88.608C61.7596 88.6081 61.7168 88.6045 61.6744 88.5972C60.6611 88.413 59.9637 87.5795 59.8693 86.6035L59.8432 86.4583C59.8373 86.425 59.834 86.3913 59.8349 86.3575C59.8424 86.068 59.9141 85.7752 60.0499 85.4902C60.0506 85.4888 60.0495 85.4871 60.048 85.4871C60.0464 85.4871 60.0454 85.4856 60.0459 85.4842L60.0709 85.4188C60.0725 85.4146 60.0746 85.4107 60.0772 85.4071L60.084 85.3978C60.0886 85.3915 60.0926 85.3849 60.096 85.378C60.6675 84.2204 60.9967 82.9278 60.9967 81.5457V81.526C60.9967 80.7123 60.8454 79.9249 60.6195 79.1375C59.6062 75.6436 56.5136 73.1016 52.8311 73.1016L52.6424 73.106H52.6008L52.4056 73.1016C50.6729 73.1016 49.0827 73.6784 47.7667 74.6369C46.2841 75.7182 45.1523 77.2842 44.6194 79.1375C44.4878 79.5849 44.3957 80.0346 44.3299 80.4886C44.2794 80.8285 44.2377 81.1707 44.2377 81.5194V81.5479C44.2377 82.9341 44.5711 84.2303 45.1501 85.3862L45.1677 85.4191L45.1809 85.4542L45.197 85.4945C45.1978 85.4966 45.1971 85.499 45.1952 85.5002C45.1933 85.5015 45.1925 85.504 45.1935 85.5061C45.3148 85.7694 45.3868 86.0483 45.4001 86.3225C45.4031 86.3839 45.3967 86.4453 45.3853 86.5057L45.3695 86.5903C45.2817 87.5729 44.5799 88.4151 43.5644 88.5994C43.5235 88.6067 43.4821 88.6103 43.4406 88.6102L30.6565 88.5886C30.5852 88.5885 30.5141 88.595 30.4441 88.6082L30.365 88.6249C30.3417 88.6298 30.3189 88.6365 30.2966 88.6448C30.249 88.6627 30.1989 88.6728 30.1481 88.6747L30.1107 88.6761C29.7466 88.6915 29.4264 89.0051 29.4242 89.4328L29.4479 103.719C29.4482 103.893 29.3887 104.061 29.2795 104.196C28.8737 104.681 28.2771 104.992 27.617 104.992C27.288 104.992 26.9458 104.913 26.6365 104.749C25.5333 104.176 24.2985 103.852 22.9781 103.852C21.2345 103.852 19.3373 104.415 17.4247 105.775C17.1352 105.979 16.8676 106.249 16.6724 106.547C15.363 108.51 14.8125 110.471 14.8125 112.287C14.8125 116.956 18.4753 120.716 22.9562 120.722H22.9716C24.2875 120.722 25.5311 120.402 26.6322 119.825C26.9326 119.67 27.2616 119.591 27.5819 119.591C28.3056 119.591 28.9439 119.966 29.3409 120.518C29.4322 120.645 29.4814 120.798 29.4816 120.954L29.5032 135.328C29.5032 135.762 29.841 136.086 30.2204 136.086L43.6076 136.065C43.6796 136.065 43.7515 136.059 43.8226 136.048C43.8946 136.037 43.9672 136.032 44.04 136.032H44.0645C44.2816 136.027 44.4198 135.953 44.5426 135.828C44.6149 135.746 44.6709 135.643 44.7035 135.529C44.7459 135.38 44.7143 135.224 44.6723 135.075C44.6299 134.925 44.5661 134.783 44.4874 134.648C43.6163 133.163 43.1126 131.42 43.1126 129.561C43.1126 127.522 43.7201 125.341 45.0734 123.227L45.0997 123.188L45.126 123.157C45.716 122.44 46.4047 121.812 47.1658 121.293L47.1833 121.282L47.1987 121.271C49.0082 120.183 50.8571 119.676 52.6095 119.645H52.6315C54.3839 119.676 56.2307 120.183 58.0401 121.271C58.0518 121.277 58.0629 121.284 58.0732 121.292L58.0774 121.295C58.8385 121.817 59.525 122.442 60.115 123.159L60.1435 123.194L60.1676 123.229C61.5187 125.346 62.1284 127.524 62.1262 129.568C62.1262 131.425 61.6271 133.172 60.7502 134.661C60.6737 134.791 60.6113 134.929 60.5691 135.074C60.5254 135.225 60.4926 135.384 60.537 135.534C60.5704 135.647 60.6268 135.749 60.6984 135.83C60.819 135.955 60.9616 136.029 61.1765 136.034H61.2547C61.2888 136.034 61.3228 136.037 61.3564 136.043C61.4645 136.059 61.5735 136.067 61.6828 136.067L75.0184 136.089C75.3979 136.089 75.7356 135.764 75.7378 135.33L75.7602 123.083C75.7611 122.58 75.3181 122.201 74.8145 122.201H74.8101C73.8946 122.193 72.9838 122.124 72.0684 122.132C72.0458 122.133 72.0231 122.133 72.0005 122.133C70.0265 122.133 67.9275 121.505 65.8768 120.115L65.6443 119.974C65.21 119.661 64.8262 119.27 64.5213 118.814C63.7493 117.658 63.2163 116.481 62.872 115.312C62.7667 114.947 62.6877 114.583 62.6197 114.224C62.4925 113.557 62.4136 112.899 62.4136 112.252C62.4136 109.267 63.701 106.591 65.7452 104.771Z" fill="#191D2A"/>
<path d="M65.7452 104.771C67.2603 103.417 69.1906 102.536 71.319 102.368C71.7167 102.336 72.0419 102.661 72.0443 103.06C72.0443 102.661 72.3684 102.336 72.764 102.385C72.9894 102.413 73.2045 102.449 73.4119 102.486C73.5493 102.51 73.6894 102.513 73.828 102.497C74.2447 102.448 74.6601 102.417 75.0755 102.413C75.4614 102.413 75.7953 102.113 75.7958 101.727L75.8124 89.435C75.8124 89.0306 75.5318 88.7381 75.1962 88.6897C75.183 88.6878 75.1699 88.6854 75.157 88.6818C75.1378 88.6766 75.118 88.6736 75.0981 88.6728L75.0812 88.6721C75.0381 88.6704 74.9957 88.662 74.9552 88.6472L74.9439 88.643C74.9205 88.6344 74.8965 88.6276 74.8721 88.6227L74.8151 88.6112C74.733 88.5946 74.6494 88.5863 74.5657 88.5864L61.8026 88.608C61.7596 88.6081 61.7168 88.6045 61.6744 88.5972C60.6611 88.413 59.9637 87.5795 59.8693 86.6035L59.8432 86.4583C59.8373 86.425 59.834 86.3913 59.8349 86.3575C59.8424 86.068 59.9141 85.7752 60.0499 85.4902C60.0506 85.4888 60.0495 85.4871 60.048 85.4871C60.0464 85.4871 60.0454 85.4856 60.0459 85.4842L60.0709 85.4188C60.0725 85.4146 60.0746 85.4107 60.0772 85.4071L60.084 85.3978C60.0886 85.3915 60.0926 85.3849 60.096 85.378C60.6675 84.2204 60.9967 82.9278 60.9967 81.5457V81.526C60.9967 80.7123 60.8454 79.9249 60.6195 79.1375C59.6062 75.6436 56.5136 73.1016 52.8311 73.1016L52.6424 73.106H52.6008L52.4056 73.1016C50.6729 73.1016 49.0827 73.6784 47.7667 74.6369C46.2841 75.7182 45.1523 77.2842 44.6194 79.1375C44.4878 79.5849 44.3957 80.0346 44.3299 80.4886C44.2794 80.8285 44.2377 81.1707 44.2377 81.5194V81.5479C44.2377 82.9341 44.5711 84.2303 45.1501 85.3862L45.1677 85.4191L45.1809 85.4542L45.197 85.4945C45.1978 85.4966 45.1971 85.499 45.1952 85.5002C45.1933 85.5015 45.1925 85.504 45.1935 85.5061C45.3148 85.7694 45.3868 86.0483 45.4001 86.3225C45.4031 86.3839 45.3967 86.4453 45.3853 86.5057L45.3695 86.5903C45.2817 87.5729 44.5799 88.4151 43.5644 88.5994C43.5235 88.6067 43.4821 88.6103 43.4406 88.6102L30.6565 88.5886C30.5852 88.5885 30.5141 88.595 30.4441 88.6082L30.365 88.6249C30.3417 88.6298 30.3189 88.6365 30.2966 88.6448C30.249 88.6627 30.1989 88.6728 30.1481 88.6747L30.1107 88.6761C29.7466 88.6915 29.4264 89.0051 29.4242 89.4328L29.4479 103.719C29.4482 103.893 29.3887 104.061 29.2795 104.196C28.8737 104.681 28.2771 104.992 27.617 104.992C27.288 104.992 26.9458 104.913 26.6365 104.749C25.5333 104.176 24.2985 103.852 22.9781 103.852C21.2345 103.852 19.3373 104.415 17.4247 105.775C17.1352 105.979 16.8676 106.249 16.6724 106.547C15.363 108.51 14.8125 110.471 14.8125 112.287C14.8125 116.956 18.4753 120.716 22.9562 120.722H22.9716C24.2875 120.722 25.5311 120.402 26.6322 119.825C26.9326 119.67 27.2616 119.591 27.5819 119.591C28.3056 119.591 28.9439 119.966 29.3409 120.518C29.4322 120.645 29.4814 120.798 29.4816 120.954L29.5032 135.328C29.5032 135.762 29.841 136.086 30.2204 136.086L43.6076 136.065C43.6796 136.065 43.7515 136.059 43.8226 136.048C43.8946 136.037 43.9672 136.032 44.04 136.032H44.0645C44.2816 136.027 44.4198 135.953 44.5426 135.828C44.6149 135.746 44.6709 135.643 44.7035 135.529C44.7459 135.38 44.7143 135.224 44.6723 135.075C44.6299 134.925 44.5661 134.783 44.4874 134.648C43.6163 133.163 43.1126 131.42 43.1126 129.561C43.1126 127.522 43.7201 125.341 45.0734 123.227L45.0997 123.188L45.126 123.157C45.716 122.44 46.4047 121.812 47.1658 121.293L47.1833 121.282L47.1987 121.271C49.0082 120.183 50.8571 119.676 52.6095 119.645H52.6315C54.3839 119.676 56.2307 120.183 58.0401 121.271C58.0518 121.277 58.0629 121.284 58.0732 121.292L58.0774 121.295C58.8385 121.817 59.525 122.442 60.115 123.159L60.1435 123.194L60.1676 123.229C61.5187 125.346 62.1284 127.524 62.1262 129.568C62.1262 131.425 61.6271 133.172 60.7502 134.661C60.6737 134.791 60.6113 134.929 60.5691 135.074C60.5254 135.225 60.4926 135.384 60.537 135.534C60.5704 135.647 60.6268 135.749 60.6984 135.83C60.819 135.955 60.9616 136.029 61.1765 136.034H61.2547C61.2888 136.034 61.3228 136.037 61.3564 136.043C61.4645 136.059 61.5735 136.067 61.6828 136.067L75.0184 136.089C75.3979 136.089 75.7356 135.764 75.7378 135.33L75.7602 123.083C75.7611 122.58 75.3181 122.201 74.8145 122.201H74.8101C73.8946 122.193 72.9838 122.124 72.0684 122.132C72.0458 122.133 72.0231 122.133 72.0005 122.133C70.0265 122.133 67.9275 121.505 65.8768 120.115L65.6443 119.974C65.21 119.661 64.8262 119.27 64.5213 118.814C63.7493 117.658 63.2163 116.481 62.872 115.312C62.7667 114.947 62.6877 114.583 62.6197 114.224C62.4925 113.557 62.4136 112.899 62.4136 112.252C62.4136 109.267 63.701 106.591 65.7452 104.771Z" stroke="#94AECF" stroke-opacity="0.11" stroke-width="1.66282" mask="url(#path-4-outside-1_10001_31965)"/>
<path d="M65.7452 104.771C67.2603 103.417 69.1906 102.536 71.319 102.368C71.7167 102.336 72.0419 102.661 72.0443 103.06C72.0443 102.661 72.3684 102.336 72.764 102.385C72.9894 102.413 73.2045 102.449 73.4119 102.486C73.5493 102.51 73.6894 102.513 73.828 102.497C74.2447 102.448 74.6601 102.417 75.0755 102.413C75.4614 102.413 75.7953 102.113 75.7958 101.727L75.8124 89.435C75.8124 89.0306 75.5318 88.7381 75.1962 88.6897C75.183 88.6878 75.1699 88.6854 75.157 88.6818C75.1378 88.6766 75.118 88.6736 75.0981 88.6728L75.0812 88.6721C75.0381 88.6704 74.9957 88.662 74.9552 88.6472L74.9439 88.643C74.9205 88.6344 74.8965 88.6276 74.8721 88.6227L74.8151 88.6112C74.733 88.5946 74.6494 88.5863 74.5657 88.5864L61.8026 88.608C61.7596 88.6081 61.7168 88.6045 61.6744 88.5972C60.6611 88.413 59.9637 87.5795 59.8693 86.6035L59.8432 86.4583C59.8373 86.425 59.834 86.3913 59.8349 86.3575C59.8424 86.068 59.9141 85.7752 60.0499 85.4902C60.0506 85.4888 60.0495 85.4871 60.048 85.4871C60.0464 85.4871 60.0454 85.4856 60.0459 85.4842L60.0709 85.4188C60.0725 85.4146 60.0746 85.4107 60.0772 85.4071L60.084 85.3978C60.0886 85.3915 60.0926 85.3849 60.096 85.378C60.6675 84.2204 60.9967 82.9278 60.9967 81.5457V81.526C60.9967 80.7123 60.8454 79.9249 60.6195 79.1375C59.6062 75.6436 56.5136 73.1016 52.8311 73.1016L52.6424 73.106H52.6008L52.4056 73.1016C50.6729 73.1016 49.0827 73.6784 47.7667 74.6369C46.2841 75.7182 45.1523 77.2842 44.6194 79.1375C44.4878 79.5849 44.3957 80.0346 44.3299 80.4886C44.2794 80.8285 44.2377 81.1707 44.2377 81.5194V81.5479C44.2377 82.9341 44.5711 84.2303 45.1501 85.3862L45.1677 85.4191L45.1809 85.4542L45.197 85.4945C45.1978 85.4966 45.1971 85.499 45.1952 85.5002C45.1933 85.5015 45.1925 85.504 45.1935 85.5061C45.3148 85.7694 45.3868 86.0483 45.4001 86.3225C45.4031 86.3839 45.3967 86.4453 45.3853 86.5057L45.3695 86.5903C45.2817 87.5729 44.5799 88.4151 43.5644 88.5994C43.5235 88.6067 43.4821 88.6103 43.4406 88.6102L30.6565 88.5886C30.5852 88.5885 30.5141 88.595 30.4441 88.6082L30.365 88.6249C30.3417 88.6298 30.3189 88.6365 30.2966 88.6448C30.249 88.6627 30.1989 88.6728 30.1481 88.6747L30.1107 88.6761C29.7466 88.6915 29.4264 89.0051 29.4242 89.4328L29.4479 103.719C29.4482 103.893 29.3887 104.061 29.2795 104.196C28.8737 104.681 28.2771 104.992 27.617 104.992C27.288 104.992 26.9458 104.913 26.6365 104.749C25.5333 104.176 24.2985 103.852 22.9781 103.852C21.2345 103.852 19.3373 104.415 17.4247 105.775C17.1352 105.979 16.8676 106.249 16.6724 106.547C15.363 108.51 14.8125 110.471 14.8125 112.287C14.8125 116.956 18.4753 120.716 22.9562 120.722H22.9716C24.2875 120.722 25.5311 120.402 26.6322 119.825C26.9326 119.67 27.2616 119.591 27.5819 119.591C28.3056 119.591 28.9439 119.966 29.3409 120.518C29.4322 120.645 29.4814 120.798 29.4816 120.954L29.5032 135.328C29.5032 135.762 29.841 136.086 30.2204 136.086L43.6076 136.065C43.6796 136.065 43.7515 136.059 43.8226 136.048C43.8946 136.037 43.9672 136.032 44.04 136.032H44.0645C44.2816 136.027 44.4198 135.953 44.5426 135.828C44.6149 135.746 44.6709 135.643 44.7035 135.529C44.7459 135.38 44.7143 135.224 44.6723 135.075C44.6299 134.925 44.5661 134.783 44.4874 134.648C43.6163 133.163 43.1126 131.42 43.1126 129.561C43.1126 127.522 43.7201 125.341 45.0734 123.227L45.0997 123.188L45.126 123.157C45.716 122.44 46.4047 121.812 47.1658 121.293L47.1833 121.282L47.1987 121.271C49.0082 120.183 50.8571 119.676 52.6095 119.645H52.6315C54.3839 119.676 56.2307 120.183 58.0401 121.271C58.0518 121.277 58.0629 121.284 58.0732 121.292L58.0774 121.295C58.8385 121.817 59.525 122.442 60.115 123.159L60.1435 123.194L60.1676 123.229C61.5187 125.346 62.1284 127.524 62.1262 129.568C62.1262 131.425 61.6271 133.172 60.7502 134.661C60.6737 134.791 60.6113 134.929 60.5691 135.074C60.5254 135.225 60.4926 135.384 60.537 135.534C60.5704 135.647 60.6268 135.749 60.6984 135.83C60.819 135.955 60.9616 136.029 61.1765 136.034H61.2547C61.2888 136.034 61.3228 136.037 61.3564 136.043C61.4645 136.059 61.5735 136.067 61.6828 136.067L75.0184 136.089C75.3979 136.089 75.7356 135.764 75.7378 135.33L75.7602 123.083C75.7611 122.58 75.3181 122.201 74.8145 122.201H74.8101C73.8946 122.193 72.9838 122.124 72.0684 122.132C72.0458 122.133 72.0231 122.133 72.0005 122.133C70.0265 122.133 67.9275 121.505 65.8768 120.115L65.6443 119.974C65.21 119.661 64.8262 119.27 64.5213 118.814C63.7493 117.658 63.2163 116.481 62.872 115.312C62.7667 114.947 62.6877 114.583 62.6197 114.224C62.4925 113.557 62.4136 112.899 62.4136 112.252C62.4136 109.267 63.701 106.591 65.7452 104.771Z" stroke="url(#paint3_radial_10001_31965)" stroke-width="1.66282" mask="url(#path-4-outside-1_10001_31965)"/>
<defs>
<linearGradient id="paint0_linear_10001_31965" x1="149.104" y1="18.4044" x2="97.5556" y2="58.7257" gradientUnits="userSpaceOnUse">
<stop stop-color="#5F50FF"/>
<stop offset="1" stop-color="#5F50FF" stop-opacity="0"/>
</linearGradient>
<radialGradient id="paint1_radial_10001_31965" cx="0" cy="0" r="1" gradientTransform="matrix(31.0273 -0.576022 0.674506 26.497 63.7578 104.726)" gradientUnits="userSpaceOnUse">
<stop stop-color="#5F50FF"/>
<stop offset="1" stop-color="#5F50FF" stop-opacity="0"/>
</radialGradient>
<radialGradient id="paint2_radial_10001_31965" cx="0" cy="0" r="1" gradientTransform="matrix(-35.6809 0 -0.250598 -29.3589 81.3443 55.4818)" gradientUnits="userSpaceOnUse">
<stop stop-color="#5F50FF"/>
<stop offset="1" stop-color="#5F50FF" stop-opacity="0"/>
</radialGradient>
<radialGradient id="paint3_radial_10001_31965" cx="0" cy="0" r="1" gradientTransform="matrix(0 39.3237 -40.6034 -0.0565728 52.2455 82.5908)" gradientUnits="userSpaceOnUse">
<stop stop-color="#5F50FF"/>
<stop offset="1" stop-color="#5F50FF" stop-opacity="0"/>
</radialGradient>
</defs>
</svg>
